<svg xmlns="http://www.w3.org/2000/svg" width="45" height="43" viewBox="0 0 45 43">
    <g fill="none" fill-rule="evenodd">
        <g>
            <path fill="#FFF" d="M0 0H641V1322H0z" transform="translate(-559 -23)"/>
            <g fill="#6D6D6D" fill-rule="nonzero">
                <path d="M15 32c-2.761 0-5 2.462-5 5.5s2.239 5.5 5 5.5 5-2.462 5-5.5c-.003-3.036-2.24-5.497-5-5.5zm0 8.978c-1.746 0-3.162-1.557-3.162-3.478 0-1.92 1.416-3.478 3.162-3.478s3.162 1.557 3.162 3.478c0 1.92-1.416 3.478-3.162 3.478zM44.024 9.119H9.237l-.71-3.924C8.09 2.779 6.176.89 3.73.463L1.158.015C.622-.079.111.275.015.804c-.095.53.262 1.035.798 1.13l2.582.447c1.628.285 2.903 1.545 3.192 3.155l3.487 19.443c.412 2.326 2.458 4.023 4.847 4.021h20.69c2.173.006 4.093-1.4 4.719-3.456l4.63-15.17c.086-.295.032-.614-.148-.866-.187-.244-.478-.387-.788-.39zm-5.576 15.85c-.372 1.235-1.524 2.08-2.828 2.074H14.931c-1.435.004-2.663-1.017-2.906-2.415L9.592 11.056h33.112l-4.256 13.913zM35 32c-2.761 0-5 2.462-5 5.5s2.239 5.5 5 5.5 5-2.462 5-5.5c-.003-3.036-2.24-5.497-5-5.5zm0 8.978c-1.746 0-3.162-1.557-3.162-3.478 0-1.92 1.416-3.478 3.162-3.478s3.162 1.557 3.162 3.478c0 1.92-1.416 3.478-3.162 3.478z" transform="translate(-559 -23) translate(559 23)"/>
            </g>
        </g>
    </g>
</svg>
