<svg xmlns="http://www.w3.org/2000/svg" width="25" height="25" viewBox="0 0 25 25">
    <g fill="none" fill-rule="evenodd">
        <g>
            <path fill="#FFF" d="M0 0H640V1080H0z" transform="translate(-586 -433)"/>
            <g fill="#FF5656" fill-rule="nonzero">
                <path d="M12.5 0C5.597 0 0 5.597 0 12.5S5.597 25 12.5 25 25 19.403 25 12.5 19.403 0 12.5 0zm5.452 16.594c.374.375.374.983 0 1.358-.188.187-.434.28-.679.28-.245 0-.49-.093-.678-.28L12.5 13.857l-4.095 4.094c-.187.187-.433.281-.678.281-.245 0-.491-.094-.679-.281-.374-.375-.374-.982 0-1.357l4.095-4.094-4.095-4.094c-.374-.375-.374-.983 0-1.358.375-.374.982-.374 1.357 0l4.095 4.095 4.095-4.095c.375-.374.982-.374 1.357 0 .374.375.374.982 0 1.357L13.857 12.5l4.095 4.094z" transform="translate(-586 -433) translate(586 433)"/>
            </g>
        </g>
    </g>
</svg>
