<?xml version="1.0" encoding="UTF-8"?>
<svg width="63px" height="63px" viewBox="0 0 63 63" version="1.1" xmlns="http://www.w3.org/2000/svg" xmlns:xlink="http://www.w3.org/1999/xlink">
    <!-- Generator: sketchtool 51 (57462) - http://www.bohemiancoding.com/sketch -->
    <title>36489E2C-34C6-464A-9B5A-B876F51D3E5B</title>
    <desc>Created with sketchtool.</desc>
    <defs></defs>
    <g id="Signup-(PWA)" stroke="none" stroke-width="1" fill="none" fill-rule="evenodd">
        <g id="PWA-MENU" transform="translate(-36.000000, -308.000000)">
            <rect fill="#FFFFFF" x="0" y="0" width="640" height="1551"></rect>
            <g id="juice" transform="translate(36.000000, 308.000000)" fill-rule="nonzero">
                <circle id="Oval" fill="#DBD8DD" cx="31.5" cy="31.5" r="31.5"></circle>
                <path d="M63,31.7822313 C63,30.7636779 62.9472757,29.7575063 62.8528764,28.7637183 L45.7782488,11.6733464 L45.7762671,11.6741878 C44.7683204,10.6425314 43.3640406,10 41.8073529,10 C38.7426183,10 36.2583313,12.4915069 36.2583313,15.5590682 L19.5326024,15.5590682 C19.5326024,15.5590682 16.5760787,39.5530739 24.5946149,51.4244583 C24.6290238,51.4786738 24.6683568,51.5328892 24.7028258,51.5869845 C24.8258091,51.7642967 24.9537166,51.9416089 25.081624,52.1138722 C25.1258211,52.1728961 25.1652142,52.2320403 25.2095314,52.2861355 C25.3767119,52.5078058 25.5440124,52.7194986 25.7211012,52.9263829 C25.7667996,52.98156 25.8204847,53.0251968 25.8709271,53.0737624 L25.8671439,53.0828984 L35.7751655,63 C51.1474793,60.9179321 63,47.7394881 63,31.7822313 Z" id="Shape" fill="#000000" opacity="0.1"></path>
                <path d="M28.7649454,48.9999999 C28.6375282,48.9999999 28.5105454,48.9070921 28.4158542,48.7446808 C28.2757817,48.5042553 28.1370201,48.2560283 28,48 L37,48 C36.8634181,48.2560284 36.7246527,48.5035461 36.5845802,48.7439716 C36.4894546,48.9070922 36.3624718,49 36.2354928,49 L28.7649454,49 Z" id="Shape" fill="#DD584D"></path>
                <path d="M41.9999716,10 C38.686272,10 36,12.6863131 36,15.9999447 C36,19.3136868 38.686272,22 41.9999716,22 C45.313728,22 48,19.3136869 48,15.9999447 C48,12.6863132 45.313728,10 41.9999716,10 Z" id="Shape" fill="#FEDA6F"></path>
                <path d="M41.4999787,11 C39.0146998,11 37,13.0147318 37,15.4999244 C37,17.9852702 39.0146998,20 41.4999787,20 C43.9853002,20 46,17.9852702 46,15.4999244 C46,13.0147317 43.9853002,11 41.4999787,11 Z" id="Shape" fill="#EDEDED"></path>
                <path d="M41.4999843,12 C39.5669871,12 38,13.5670126 38,15.4999403 C38,17.4329883 39.5669871,19 41.4999843,19 C43.4330094,19 45,17.4329883 45,15.4999403 C45,13.5670126 43.4330094,12 41.4999843,12 Z" id="Shape" fill="#FED35B"></path>
                <path d="M45.5669563,15.4190189 C45.243356,15.4190189 43.4102924,15.5843813 42.6768978,15.8137638 C42.6612424,15.7568722 42.6387868,15.7033361 42.6101766,15.6531536 C43.2909177,15.2968496 44.704215,14.1174172 44.9330405,13.888593 C45.2202475,13.6014341 45.0553496,13.3984719 44.8284347,13.1716057 C44.601568,12.9447393 44.3986037,12.779797 44.1113967,13.0670023 C43.8825712,13.2957782 42.7031782,14.7090672 42.3469203,15.3898061 C42.2967376,15.3612425 42.2431084,15.3387852 42.1862628,15.3231299 C42.4156447,14.5897396 42.5810063,12.7566396 42.5810063,12.433044 C42.5810063,12.0269313 42.3208737,12 42.000026,12 C41.6791301,12 41.419042,12.0269313 41.419042,12.433044 C41.419042,12.7566396 41.5843553,14.5896933 41.8137855,15.3230835 C41.7568472,15.3387389 41.7032662,15.3611962 41.6531317,15.3898061 C41.2968219,14.7090672 40.1174289,13.2957783 39.8886071,13.0670024 C39.6014001,12.7797971 39.398432,12.9447394 39.1715208,13.1716057 C38.9446986,13.398472 38.7797563,13.6014342 39.0669632,13.8885931 C39.2958332,14.1174172 40.7090378,15.2968961 41.3897789,15.6531537 C41.3611687,15.7033361 41.3387577,15.7568722 41.3231023,15.8137639 C40.5897077,15.5843814 38.756644,15.4190189 38.4330474,15.4190189 C38.0268851,15.4190189 38,15.6791538 38,15.9999995 C38,16.3208471 38.0268851,16.5809801 38.4330474,16.5809801 C38.756644,16.5809801 40.5897559,16.4156177 41.3231505,16.186237 C41.3388059,16.2431268 41.3612652,16.2967111 41.3898271,16.3468917 C40.7090377,16.7031494 39.2958332,17.8825373 39.0669631,18.1113596 C38.7797562,18.3985648 38.9446985,18.6015279 39.1716135,18.8284416 C39.398432,19.0553069 39.6014,19.2202038 39.888607,18.9329986 C40.1174288,18.7041744 41.2968701,17.2909337 41.6531317,16.6101948 C41.7033589,16.6388029 41.7568471,16.661262 41.8137855,16.6769174 C41.5843553,17.4103077 41.4190419,19.243314 41.4190419,19.566957 C41.4190419,19.9730687 41.6791301,20 42.0000259,20 C42.3208736,20 42.5810063,19.9730687 42.5810063,19.566957 C42.5810063,19.243314 42.4156447,17.4102594 42.1862627,16.676871 C42.2431083,16.6612157 42.2966893,16.6387566 42.3468238,16.6101948 C42.7031299,17.2908874 43.8825712,18.7041745 44.1113967,18.9329986 C44.3986037,19.2202039 44.6015198,19.055307 44.8284347,18.8284416 C45.0553014,18.601528 45.2202475,18.3985649 44.9330405,18.1113596 C44.704215,17.8825373 43.2909177,16.7031494 42.6101766,16.3468454 C42.6387867,16.2967112 42.6612423,16.2431268 42.6768977,16.186237 C43.4102923,16.4156177 45.243356,16.5809801 45.5669562,16.5809801 C45.9731186,16.5809801 46,16.3208471 46,15.9999995 C46,15.6791537 45.9731187,15.4190189 45.5669563,15.4190189 Z" id="Shape" fill="#EDEDED"></path>
                <path d="M41.4749267,15 L19.5250726,15 C19.5250726,15 16.3467242,41.1601402 25.6295166,52.3659364 C25.9616184,52.766869 26.419953,53 26.9027671,53 L34.097234,53 C34.5800481,53 35.0383828,52.766869 35.3704845,52.3659364 C44.653277,41.1601402 41.4749267,15 41.4749267,15 Z" id="Shape" fill="#EDEDED"></path>
                <path d="M20.0023685,25 C19.9450894,33.390606 20.8967381,45.371256 26.1429917,51.8269916 C26.2324136,51.9370442 26.3523301,52 26.4726569,52 L33.527482,52 C33.6473986,52 33.7673151,51.9370442 33.856737,51.8269916 C39.1032483,45.371256 40.0550513,33.390606 39.9976197,25 L20.0023685,25 Z" id="Shape" fill="#DD584D"></path>
                <path d="M24,50 C24.6065087,51.1922161 25.2864712,52.3016944 26.0507732,53.3016945 C26.3882442,53.7432486 26.8539889,54 27.3446088,54 L34.6553912,54 C35.1460111,54 35.6117558,53.7432486 35.9492268,53.3016945 C36.7135269,52.3016944 37.3934913,51.192216 38,50 L24,50 Z" id="Shape" fill="#EDEDED"></path>
                <path d="M29.999971,24 C24.4771334,24 20,24.2238599 20,24.5000277 C20,24.7761401 24.4771334,25 29.999971,25 C35.5228086,25 40,24.7761401 40,24.5000277 C40,24.2238599 35.5228085,24 29.999971,24 Z" id="Shape" fill="#A64139"></path>
                <g id="Group" opacity="0.25" transform="translate(21.000000, 15.000000)" fill="#EDEDED">
                    <path d="M7.155265,37.6269215 L6.51337311,37.6269215 C6.12823797,37.6269215 5.76366345,37.3979614 5.49662636,36.9985004 C-1.88763778,25.9102905 0.643948719,0.026441959 0.643948719,0.026441959 L2.60560546,0.026441959 C2.60560546,0.026441959 0.643948719,25.9102905 6.36963698,36.9985004 C6.57505491,37.3979614 6.8574497,37.6269215 7.155265,37.6269215 Z" id="Shape"></path>
                    <path d="M13.2455904,36.9985004 C12.9836935,37.3979614 12.619119,37.6269215 12.2339838,37.6269215 L11.592092,37.6269215 C11.8899072,37.6269215 12.172302,37.3979614 12.37772,36.9985004 C18.1034082,25.9102905 16.1417515,0.026441959 16.1417515,0.026441959 L18.1034082,0.026441959 C18.1034082,0.0264419103 20.6349947,25.9102905 13.2455904,36.9985004 Z" id="Shape"></path>
                </g>
            </g>
        </g>
    </g>
</svg>