<?xml version="1.0" encoding="UTF-8"?>
<svg width="63px" height="63px" viewBox="0 0 63 63" version="1.1" xmlns="http://www.w3.org/2000/svg" xmlns:xlink="http://www.w3.org/1999/xlink">
    <!-- Generator: sketchtool 51 (57462) - http://www.bohemiancoding.com/sketch -->
    <title>D94AA67B-EB7C-4023-9C18-AABD6E886E34</title>
    <desc>Created with sketchtool.</desc>
    <defs></defs>
    <g id="Signup-(PWA)" stroke="none" stroke-width="1" fill="none" fill-rule="evenodd">
        <g id="PWA-MENU" transform="translate(-209.000000, -308.000000)">
            <rect fill="#FFFFFF" x="0" y="0" width="640" height="1551"></rect>
            <g id="burger-(1)" transform="translate(209.000000, 308.000000)" fill-rule="nonzero">
                <circle id="Oval" fill="#DBD8DD" cx="31.4692683" cy="31.4692683" r="31.4692683"></circle>
                <path d="M61.4961951,40.9100488 L45.2370732,24.5853659 C42.2868293,21.635122 37.1075122,19.7338537 31.2725854,19.7338537 C22.0940488,19.7338537 14.6200976,24.5198049 14.6200976,30.4202927 L15.6690732,31.4692683 L15.6690732,32.0593171 C14.4889756,32.0593171 13.505561,33.0427317 13.505561,34.2228293 L13.505561,34.4195122 C13.505561,35.009561 13.7678049,35.5340488 14.0956098,35.9274146 L15.6035122,37.4353171 L15.6035122,38.4187317 L14.1611707,38.4187317 L14.1611707,39.3365854 C14.1611707,40.32 14.6200976,41.2378537 15.3412683,41.9590244 L35.9929756,62.6107317 C48.0561951,60.8405854 57.9559024,52.2520976 61.4961951,40.9100488 Z" id="Shape" fill="#000000" opacity="0.1"></path>
                <rect id="Rectangle-path" fill="#D15241" x="15.6040244" y="30.4205488" width="31.2720732" height="1.83570732"></rect>
                <path d="M47.3350244,36.5830244 L15.6035122,36.5830244 C14.4234146,36.5830244 13.44,35.5996098 13.44,34.4195122 L13.44,34.2228293 C13.44,33.0427317 14.4234146,32.0593171 15.6035122,32.0593171 L47.2694634,32.0593171 C48.449561,32.0593171 49.4329756,33.0427317 49.4329756,34.2228293 L49.4329756,34.4195122 C49.4985366,35.5996098 48.515122,36.5830244 47.3350244,36.5830244 Z" id="Shape" fill="#DC8744"></path>
                <path d="M43.5980488,43.2046829 L18.4881951,43.2046829 C16.128,43.2046829 14.1611707,41.3034146 14.1611707,38.8776585 L14.1611707,38.4187317 L47.9250732,38.4187317 L47.9250732,38.8776585 C47.9250732,41.2378537 45.9582439,43.2046829 43.5980488,43.2046829 Z" id="Shape" fill="#FCD462"></path>
                <path d="M31.0103415,38.4187317 L14.1611707,38.4187317 L14.1611707,39.3365854 C14.1611707,41.5000976 16.193561,43.2046829 18.684878,43.2046829 L31.0759024,43.2046829 L31.0759024,38.4187317 L31.0103415,38.4187317 Z" id="Shape" fill="#F6C358"></path>
                <g id="Group" transform="translate(15.493902, 36.493902)" fill="#44C4A1">
                    <path d="M28.2352683,1.92482927 C28.2352683,2.51487805 28.956439,2.97380488 29.8087317,2.97380488 C30.6610244,2.97380488 31.3821951,2.51487805 31.3821951,1.92482927" id="Shape"></path>
                    <path d="M25.1539024,1.92482927 C25.1539024,2.51487805 25.8750732,2.97380488 26.7273659,2.97380488 C27.5796585,2.97380488 28.3008293,2.51487805 28.3008293,1.92482927" id="Shape"></path>
                    <path d="M22.0069756,1.92482927 C22.0069756,2.51487805 22.7281463,2.97380488 23.580439,2.97380488 C24.4327317,2.97380488 25.1539024,2.51487805 25.1539024,1.92482927" id="Shape"></path>
                    <path d="M18.9256098,1.92482927 C18.9256098,2.51487805 19.6467805,2.97380488 20.4990732,2.97380488 C21.3513659,2.97380488 22.0725366,2.51487805 22.0725366,1.92482927" id="Shape"></path>
                    <path d="M15.7786829,1.92482927 C15.7786829,2.51487805 16.4998537,2.97380488 17.3521463,2.97380488 C18.204439,2.97380488 18.9256098,2.51487805 18.9256098,1.92482927" id="Shape"></path>
                    <path d="M12.6317561,1.92482927 C12.6317561,2.51487805 13.3529268,2.97380488 14.2052195,2.97380488 C15.0575122,2.97380488 15.7786829,2.51487805 15.7786829,1.92482927" id="Shape"></path>
                    <path d="M9.55039024,1.92482927 C9.55039024,2.51487805 10.271561,2.97380488 11.1238537,2.97380488 C11.9761463,2.97380488 12.6973171,2.51487805 12.6973171,1.92482927" id="Shape"></path>
                    <path d="M6.40346341,1.92482927 C6.40346341,2.51487805 7.12463415,2.97380488 7.97692683,2.97380488 C8.82921951,2.97380488 9.55039024,2.51487805 9.55039024,1.92482927" id="Shape"></path>
                    <path d="M3.25653659,1.92482927 C3.25653659,2.51487805 3.97770732,2.97380488 4.83,2.97380488 C5.68229268,2.97380488 6.40346341,2.51487805 6.40346341,1.92482927" id="Shape"></path>
                    <path d="M0.109609756,1.92482927 C0.109609756,2.51487805 0.830780488,2.97380488 1.68307317,2.97380488 C2.53536585,2.97380488 3.25653659,2.51487805 3.25653659,1.92482927" id="Shape"></path>
                    <rect id="Rectangle-path" x="0.110121951" y="0.0896341463" width="31.2720732" height="1.96682927"></rect>
                </g>
                <path d="M47.9250732,30.4202927 C47.9250732,24.5198049 40.451122,19.7994146 31.2725854,19.7994146 C22.0940488,19.7994146 14.6200976,24.5853659 14.6200976,30.4202927 L47.9250732,30.4202927 Z" id="Shape" fill="#FCD462"></path>
                <path d="M31.2725854,30.4202927 L14.5545366,30.4202927 C14.5545366,24.5198049 22.0284878,19.7994146 31.2070244,19.7994146 L31.2070244,30.4202927 L31.2725854,30.4202927 Z" id="Shape" fill="#F6C358"></path>
            </g>
        </g>
    </g>
</svg>