<?xml version="1.0" encoding="UTF-8"?>
<svg width="19px" height="19px" viewBox="0 0 19 19" version="1.1" xmlns="http://www.w3.org/2000/svg" xmlns:xlink="http://www.w3.org/1999/xlink">
    <!-- Generator: sketchtool 51 (57462) - http://www.bohemiancoding.com/sketch -->
    <title>B7CF0941-6DE0-44BA-B30C-DA8786A90074</title>
    <desc>Created with sketchtool.</desc>
    <defs></defs>
    <g id="Signup-(PWA)" stroke="none" stroke-width="1" fill="none" fill-rule="evenodd">
        <g id="PWA-MENU" transform="translate(-250.000000, -142.000000)">
            <rect fill="#FFFFFF" x="0" y="0" width="640" height="1551"></rect>
            <g id="noun_Discount_1714063" transform="translate(250.000000, 142.000000)" fill-rule="nonzero">
                <g id="Group">
                    <path d="M9.46702444,0.0775596703 C9.33985214,0.085285676 9.2179919,0.13076397 9.11736111,0.208054176 L7.34930556,1.53257341 L5.14583333,1.25853495 C4.86517594,1.22493392 4.59598388,1.37934958 4.48611111,1.63696901 L3.62186444,3.65963385 L1.57674667,4.51437286 C1.31625649,4.62303126 1.16011548,4.88926686 1.19408667,5.16684538 L1.47119111,7.34609945 L0.131944339,9.09471538 C-0.0395762878,9.31848959 -0.0395762878,9.62780931 0.131944339,9.85158352 L1.47119111,11.6002099 L1.19408667,13.7794681 C1.16011548,14.0570467 1.31625649,14.3232823 1.57674667,14.4319407 L3.62186444,15.2866692 L4.48611111,17.3093341 C4.59598388,17.5669535 4.86517594,17.7213692 5.14583333,17.6877681 L7.34930556,17.4137297 L9.11736111,18.7382593 C9.3436217,18.9078951 9.6563783,18.9078951 9.88263889,18.7382593 L11.6506944,17.4137297 L13.8541667,17.6877681 C14.1348241,17.7213692 14.4040161,17.5669535 14.5138889,17.3093341 L15.3781356,15.2866692 L17.4232535,14.4319407 C17.6837437,14.3232823 17.8398847,14.0570467 17.8059135,13.7794681 L17.5288091,11.6002099 L18.8680556,9.85158352 C19.0395762,9.62780931 19.0395762,9.31848959 18.8680556,9.09471538 L17.5288091,7.34609945 L17.8059135,5.16684538 C17.8398847,4.88926686 17.6837437,4.62303126 17.4232535,4.51437286 L15.3781358,3.65963385 L14.5138889,1.63696901 C14.4040161,1.37934958 14.1348241,1.22493392 13.8541667,1.25853495 L11.6506947,1.53257341 L9.8826391,0.208054176 C9.76408396,0.11727689 9.61681276,0.0710367193 9.46702466,0.0775596703 L9.46702444,0.0775596703 Z M9.5,1.48690033 L11.08992,2.68092505 C11.2215491,2.78038428 11.3873363,2.82488713 11.5517467,2.80489484 L13.5309133,2.55695527 L14.3093644,4.37735363 C14.3736544,4.53099622 14.4970703,4.65305586 14.65242,4.71663934 L16.4930556,5.48655692 L16.2423611,7.44398077 C16.2221494,7.60657617 16.2671426,7.77053279 16.3676978,7.90071154 L17.575,9.47314945 L16.3676978,11.0455978 C16.2671426,11.1757766 16.2221494,11.3397332 16.2423611,11.5023286 L16.4930556,13.4597462 L14.65242,14.2296637 C14.4970703,14.2932472 14.3736544,14.4153069 14.3093644,14.5689495 L13.5309133,16.3893582 L11.5517467,16.1414187 C11.3873377,16.1214234 11.2215506,16.1659225 11.08992,16.265378 L9.5,17.4594132 L7.91008,16.265378 C7.77844935,16.1659225 7.61266232,16.1214234 7.44825333,16.1414187 L5.46908667,16.3893582 L4.69063556,14.5689495 C4.62634559,14.4153069 4.50292974,14.2932472 4.34758,14.2296637 L2.50694444,13.4597462 L2.75763889,11.5023286 C2.77785062,11.3397332 2.73285742,11.1757766 2.63230222,11.0455978 L1.425,9.47314945 L2.63230222,7.90071154 C2.73285742,7.77053279 2.77785062,7.60657617 2.75763889,7.44398077 L2.50694444,5.48655692 L4.34758,4.71663934 C4.50292974,4.65305586 4.62634559,4.53099622 4.69063556,4.37735363 L5.46908667,2.55695527 L7.44825333,2.80489484 C7.61266373,2.82488713 7.77845091,2.78038428 7.91008,2.68092505 L9.5,1.48690033 Z" id="Shape" fill="#FFA3A3"></path>
                    <path d="M6.96666667,5.92371352 C7.55714444,5.92371352 8.02222222,6.38368055 8.02222222,6.96766538 C8.02222222,7.55163352 7.55714444,8.01162143 6.96666667,8.01162143 C6.37623111,8.01162143 5.91111111,7.55161264 5.91111111,6.96766538 C5.91111111,6.38369099 6.37621,5.92371352 6.96666667,5.92371352 Z" id="Path" fill="#FFFFFF"></path>
                    <g id="Group-6" transform="translate(6.785714, 6.627907)" fill="#FF5656">
                        <path d="M1.13095238,0 C0.510008117,0 0,0.498133985 0,1.10465267 C0,1.71116834 0.509997835,2.20930233 1.13095238,2.20930233 C1.75190693,2.20930233 2.26190476,1.71116834 2.26190476,1.10465267 C2.26190476,0.498139006 1.75190693,0 1.13095238,0 Z" id="Path"></path>
                        <path d="M4.29761905,3.53488372 C3.67667478,3.53488372 3.16666667,4.03301771 3.16666667,4.63953639 C3.16666667,5.24605206 3.6766645,5.74418605 4.29761905,5.74418605 C4.91857359,5.74418605 5.42857143,5.24605206 5.42857143,4.63953639 C5.42857143,4.03302273 4.91857359,3.53488372 4.29761905,3.53488372 Z" id="Path"></path>
                        <path d="M4.94858799,0.00354173641 C4.85188965,0.0170318238 4.76247741,0.065156705 4.69523998,0.139902745 L0.143737503,4.95484643 C0.0247473355,5.0663899 -0.0257635994,5.2386607 0.0126701766,5.40185999 C0.0511039525,5.56505928 0.172109552,5.69212622 0.326659225,5.73157718 C0.481208898,5.77102814 0.643676028,5.71632158 0.748233926,5.58962291 L5.2997364,0.774686748 C5.43101096,0.639274077 5.465848,0.430287747 5.3862755,0.255541305 C5.306703,0.0807948619 5.13050824,-0.0206496669 4.94858799,0.00354173641 Z" id="Path"></path>
                    </g>
                </g>
            </g>
        </g>
    </g>
</svg>