<?xml version="1.0" encoding="UTF-8"?>
<svg width="63px" height="63px" viewBox="0 0 63 63" version="1.1" xmlns="http://www.w3.org/2000/svg" xmlns:xlink="http://www.w3.org/1999/xlink">
    <!-- Generator: sketchtool 51 (57462) - http://www.bohemiancoding.com/sketch -->
    <title>3AC16206-ED8A-41B5-AF23-6B3E448D6623</title>
    <desc>Created with sketchtool.</desc>
    <defs></defs>
    <g id="Signup-(PWA)" stroke="none" stroke-width="1" fill="none" fill-rule="evenodd">
        <g id="PWA-MENU" transform="translate(-540.000000, -308.000000)">
            <rect fill="#FFFFFF" x="0" y="0" width="640" height="1551"></rect>
            <g id="Group-12" transform="translate(540.000000, 308.000000)" fill-rule="nonzero">
                <circle id="Oval" fill="#DBD8DD" cx="31.5" cy="31.5" r="31.5"></circle>
                <path d="M33,19 L62,36 C61.1981505,41.960231 59.1981505,46.960231 56,51 C52.8018495,55.039769 48.4685162,58.039769 43,60 L24,46 L33,19 Z" id="Path-4" fill="#C4C1C6"></path>
                <path d="M41.0984562,34.2876786 C40.4868753,34.8815058 40.2089258,35.7401401 40.3538377,36.5797525 L41.1316579,41.1210147 C41.4950327,43.2361279 39.2743195,44.8499868 37.3742108,43.8512826 L33.2960439,41.7065415 C32.5419721,41.3098497 31.6405675,41.3098497 30.8864957,41.7065415 L26.807176,43.8512826 C24.9070673,44.8499868 22.687507,43.2361279 23.0508817,41.1210147 L23.828702,36.5797525 C23.9736138,35.7401401 23.6945116,34.8815058 23.0840835,34.2876786 L19.7838521,31.070567 C18.248271,29.5730295 19.0962991,26.9627721 21.2208656,26.6539267 L25.7799968,25.991275 C26.623183,25.8689588 27.3523534,25.3393447 27.7300234,24.5757043 L29.7690492,20.4428929 C30.2334126,19.5022918 31.1252486,19.0225956 32.0266532,19.0011528 C32.0479807,19 32.0694235,19 32.090751,19 C33.014636,19 33.9374833,19.4798115 34.4136057,20.4428929 L36.4527468,24.5757043 C36.8304168,25.3393447 37.5595872,25.8689588 38.4027735,25.991275 L42.9630575,26.6539267 C45.0864711,26.9626569 45.9343839,29.5730295 44.39765,31.070567 L41.0984562,34.2876786 Z" id="Shape" fill="#F4DD45"></path>
            </g>
        </g>
    </g>
</svg>